<svg width="60" height="60" viewBox="0 0 60 60" fill="none" xmlns="http://www.w3.org/2000/svg">
<rect width="60" height="60" rx="4" fill="url(#paint0_linear_51_2)"/>
<path d="M13.905 19.54H16.664L24.228 40H21.3915L19.6245 35.071H10.9445L9.1465 40H6.31L13.905 19.54ZM11.797 32.684H18.7875L15.3155 22.795H15.269L11.797 32.684ZM26.6465 19.54H29.3125V40H26.6465V19.54ZM48.4983 41.0385C49.0873 41.0385 49.604 40.9713 50.0483 40.837C50.4927 40.7027 50.844 40.5632 51.1023 40.4185C51.3607 40.2738 51.5053 40.1808 51.5363 40.1395L52.6368 42.0305C52.3785 42.3302 51.9032 42.6557 51.2108 43.007C50.5288 43.3687 49.6143 43.5495 48.4673 43.5495C47.744 43.5495 47.124 43.472 46.6073 43.317C46.101 43.162 45.6257 42.976 45.1813 42.759C44.737 42.5523 44.272 42.3663 43.7863 42.201C43.3007 42.046 42.7272 41.9685 42.0658 41.9685C41.4355 41.9685 40.8723 42.077 40.3763 42.294C39.8803 42.5213 39.4825 42.7487 39.1828 42.976C38.8832 43.2033 38.723 43.3377 38.7023 43.379L37.4003 41.891C38.0617 41.271 38.8057 40.7698 39.6323 40.3875C40.459 40.0155 41.4303 39.8295 42.5463 39.8295C43.3523 39.8295 44.0653 39.9277 44.6853 40.124C45.3157 40.3307 45.9305 40.5322 46.5298 40.7285C47.1292 40.9352 47.7853 41.0385 48.4983 41.0385ZM35.3853 29.7545C35.3853 31.2735 35.7005 32.6427 36.3308 33.862C36.9715 35.0813 37.8498 36.0527 38.9658 36.776C40.0818 37.489 41.3632 37.8455 42.8098 37.8455C44.2668 37.8455 45.5482 37.489 46.6538 36.776C47.7698 36.0527 48.643 35.0813 49.2733 33.862C49.9037 32.6427 50.2188 31.2735 50.2188 29.7545C50.2188 28.2355 49.9037 26.8715 49.2733 25.6625C48.643 24.4432 47.7698 23.477 46.6538 22.764C45.5482 22.051 44.2668 21.6945 42.8098 21.6945C41.3632 21.6945 40.0818 22.051 38.9658 22.764C37.8498 23.477 36.9715 24.4432 36.3308 25.6625C35.7005 26.8715 35.3853 28.2355 35.3853 29.7545ZM32.6418 29.7545C32.6418 28.2665 32.895 26.8818 33.4013 25.6005C33.918 24.3088 34.6362 23.1825 35.5558 22.2215C36.4755 21.2605 37.5502 20.5113 38.7798 19.974C40.0198 19.4367 41.3632 19.168 42.8098 19.168C44.2668 19.168 45.6102 19.4367 46.8398 19.974C48.0798 20.5113 49.1545 21.2605 50.0638 22.2215C50.9835 23.1825 51.6965 24.3088 52.2028 25.6005C52.7092 26.8818 52.9623 28.2665 52.9623 29.7545C52.9623 31.2528 52.7092 32.6478 52.2028 33.9395C51.7068 35.2208 50.999 36.3472 50.0793 37.3185C49.17 38.2795 48.1005 39.0287 46.8708 39.566C45.6412 40.1033 44.2875 40.372 42.8098 40.372C41.3322 40.372 39.9682 40.1033 38.7178 39.566C37.4778 39.0287 36.4032 38.2795 35.4938 37.3185C34.5845 36.3472 33.8818 35.2208 33.3858 33.9395C32.8898 32.6478 32.6418 31.2528 32.6418 29.7545Z" fill="#2F3442"/>
<defs>
<linearGradient id="paint0_linear_51_2" x1="30" y1="0" x2="30" y2="60" gradientUnits="userSpaceOnUse">
<stop stop-color="white"/>
<stop offset="0.571666" stop-color="#AFAFAF"/>
<stop offset="1" stop-color="#AFAFAF"/>
</linearGradient>
</defs>
</svg>
