<svg width="604" height="163" viewBox="0 0 604 163" fill="none" xmlns="http://www.w3.org/2000/svg">
<path d="M51 7.99999H68.8L117.6 140H99.3L87.9 108.2H31.9L20.3 140H2L51 7.99999ZM37.4 92.8H82.5L60.1 29H59.8L37.4 92.8ZM133.203 7.99999H150.403V140H133.203V7.99999ZM274.183 146.7C277.983 146.7 281.316 146.267 284.183 145.4C287.049 144.533 289.316 143.633 290.983 142.7C292.649 141.767 293.583 141.167 293.783 140.9L300.883 153.1C299.216 155.033 296.149 157.133 291.683 159.4C287.283 161.733 281.383 162.9 273.983 162.9C269.316 162.9 265.316 162.4 261.983 161.4C258.716 160.4 255.649 159.2 252.783 157.8C249.916 156.467 246.916 155.267 243.783 154.2C240.649 153.2 236.949 152.7 232.683 152.7C228.616 152.7 224.983 153.4 221.783 154.8C218.583 156.267 216.016 157.733 214.083 159.2C212.149 160.667 211.116 161.533 210.983 161.8L202.583 152.2C206.849 148.2 211.649 144.967 216.983 142.5C222.316 140.1 228.583 138.9 235.783 138.9C240.983 138.9 245.583 139.533 249.583 140.8C253.649 142.133 257.616 143.433 261.483 144.7C265.349 146.033 269.583 146.7 274.183 146.7ZM189.583 73.9C189.583 83.7 191.616 92.5333 195.683 100.4C199.816 108.267 205.483 114.533 212.683 119.2C219.883 123.8 228.149 126.1 237.483 126.1C246.883 126.1 255.149 123.8 262.283 119.2C269.483 114.533 275.116 108.267 279.183 100.4C283.249 92.5333 285.283 83.7 285.283 73.9C285.283 64.1 283.249 55.3 279.183 47.5C275.116 39.6333 269.483 33.4 262.283 28.8C255.149 24.2 246.883 21.9 237.483 21.9C228.149 21.9 219.883 24.2 212.683 28.8C205.483 33.4 199.816 39.6333 195.683 47.5C191.616 55.3 189.583 64.1 189.583 73.9ZM171.883 73.9C171.883 64.3 173.516 55.3667 176.783 47.1C180.116 38.7667 184.749 31.5 190.683 25.3C196.616 19.1 203.549 14.2667 211.483 10.8C219.483 7.33332 228.149 5.59999 237.483 5.59999C246.883 5.59999 255.549 7.33332 263.483 10.8C271.483 14.2667 278.416 19.1 284.283 25.3C290.216 31.5 294.816 38.7667 298.083 47.1C301.349 55.3667 302.983 64.3 302.983 73.9C302.983 83.5667 301.349 92.5667 298.083 100.9C294.883 109.167 290.316 116.433 284.383 122.7C278.516 128.9 271.616 133.733 263.683 137.2C255.749 140.667 247.016 142.4 237.483 142.4C227.949 142.4 219.149 140.667 211.083 137.2C203.083 133.733 196.149 128.9 190.283 122.7C184.416 116.433 179.883 109.167 176.683 100.9C173.483 92.5667 171.883 83.5667 171.883 73.9Z" fill="#282D3B"/>
<path d="M343.48 102V54.08H324.6V48.64H368.04V54.08H349.24V102H343.48ZM370.416 102V65.28C371.056 65.0133 372.282 64.56 374.096 63.92C375.962 63.28 378.176 62.6933 380.736 62.16C383.349 61.6267 386.042 61.36 388.816 61.36C389.242 61.36 389.669 61.4133 390.096 61.52C390.522 61.6267 390.949 61.7333 391.376 61.84V66.96C389.989 66.8 388.629 66.72 387.296 66.72C386.016 66.72 384.762 66.8 383.536 66.96C382.309 67.0667 381.082 67.2267 379.856 67.44C378.629 67.6533 377.402 67.8667 376.176 68.08V102H370.416ZM414.332 103.2C412.572 103.2 410.785 103.013 408.972 102.64C407.212 102.267 405.559 101.627 404.012 100.72C402.519 99.8133 401.292 98.5867 400.332 97.04C399.425 95.44 398.972 93.44 398.972 91.04C398.972 87.7333 399.585 85.0933 400.812 83.12C402.092 81.0933 403.825 79.6533 406.012 78.8C408.252 77.8933 410.812 77.44 413.692 77.44C415.879 77.44 417.772 77.5733 419.372 77.84C420.972 78.1067 422.385 78.5067 423.612 79.04C424.892 79.52 426.039 80.08 427.052 80.72L428.172 86C426.945 85.0933 425.159 84.32 422.812 83.68C420.519 82.9867 417.985 82.64 415.212 82.64C411.852 82.64 409.265 83.28 407.452 84.56C405.639 85.84 404.732 87.7067 404.732 90.16C404.732 92.1333 405.265 93.7067 406.332 94.88C407.452 96.0533 408.839 96.88 410.492 97.36C412.199 97.84 413.932 98.08 415.692 98.08C419.159 98.08 421.772 97.84 423.532 97.36C425.345 96.8267 426.252 95.6533 426.252 93.84V75.52C426.252 72.4267 425.345 70.16 423.532 68.72C421.719 67.28 419.132 66.56 415.772 66.56C413.639 66.56 411.372 66.88 408.972 67.52C406.625 68.1067 404.599 69.0667 402.892 70.4V64.64C404.545 63.5733 406.759 62.7733 409.532 62.24C412.305 61.6533 414.999 61.36 417.612 61.36C419.372 61.36 420.999 61.5467 422.492 61.92C423.985 62.24 425.319 62.7467 426.492 63.44C427.665 64.08 428.652 64.9333 429.452 66C430.305 67.0133 430.945 68.2133 431.372 69.6C431.852 70.9333 432.092 72.4533 432.092 74.16V93.52C432.092 96.3467 431.239 98.4533 429.532 99.84C427.879 101.227 425.692 102.133 422.972 102.56C420.305 102.987 417.425 103.2 414.332 103.2ZM461.429 103.2C459.509 103.2 457.482 102.907 455.349 102.32C453.215 101.787 451.189 100.773 449.269 99.28C447.402 97.7333 445.855 95.5467 444.629 92.72C443.455 89.84 442.869 86.1067 442.869 81.52C442.869 75.3333 444.362 70.4533 447.349 66.88C450.389 63.2533 454.975 61.44 461.109 61.44C462.282 61.44 463.669 61.6 465.269 61.92C466.869 62.24 468.442 62.64 469.989 63.12C471.535 63.6 472.815 64.1067 473.829 64.64L471.829 66.64V45.2H477.589V95.12C477.589 96.6133 477.055 97.8933 475.989 98.96C474.975 99.9733 473.642 100.8 471.989 101.44C470.335 102.027 468.575 102.453 466.709 102.72C464.842 103.04 463.082 103.2 461.429 103.2ZM461.509 97.92C464.282 97.92 466.682 97.6 468.709 96.96C470.789 96.32 471.829 95.52 471.829 94.56V69.52C470.175 68.56 468.389 67.8667 466.469 67.44C464.602 66.96 462.815 66.72 461.109 66.72C458.229 66.72 455.882 67.36 454.069 68.64C452.309 69.8667 451.002 71.6 450.149 73.84C449.349 76.0267 448.949 78.5867 448.949 81.52C448.949 84.4 449.269 87.0933 449.909 89.6C450.549 92.0533 451.775 94.0533 453.589 95.6C455.402 97.1467 458.042 97.92 461.509 97.92ZM490.736 102V62.08H496.496V102H490.736ZM490.416 54.96V48.64H496.816V54.96H490.416ZM509.634 65.28C510.914 64.64 512.221 64.08 513.554 63.6C514.941 63.0667 516.328 62.64 517.714 62.32C519.154 62 520.594 61.76 522.034 61.6C523.528 61.44 525.021 61.36 526.514 61.36C530.408 61.36 533.501 61.9467 535.794 63.12C538.088 64.24 539.741 65.8933 540.754 68.08C541.821 70.2667 542.354 72.9067 542.354 76V102H536.594V76C536.594 75.04 536.461 74.0267 536.194 72.96C535.981 71.8933 535.528 70.88 534.834 69.92C534.141 68.9067 533.074 68.1067 531.634 67.52C530.194 66.88 528.274 66.56 525.874 66.56C524.221 66.56 522.514 66.6933 520.754 66.96C518.994 67.2267 517.208 67.6267 515.394 68.16V102H509.634V65.28ZM571.421 103.2C567.315 103.2 563.901 102.4 561.181 100.8C558.515 99.1467 556.515 96.8267 555.181 93.84C553.848 90.8 553.181 87.2267 553.181 83.12C553.181 78.5333 553.795 74.8267 555.021 72C556.248 69.12 557.821 66.9333 559.741 65.44C561.715 63.8933 563.848 62.8533 566.141 62.32C568.488 61.7333 570.755 61.44 572.941 61.44C575.448 61.44 577.821 61.7867 580.061 62.48C582.355 63.12 584.221 64.16 585.661 65.6C587.155 67.04 587.901 68.96 587.901 71.36V103.68C587.901 105.28 587.661 106.907 587.181 108.56C586.701 110.213 585.821 111.733 584.541 113.12C583.315 114.56 581.555 115.707 579.261 116.56C577.021 117.413 574.115 117.84 570.541 117.84C568.248 117.84 566.141 117.627 564.221 117.2C562.301 116.773 560.621 116.373 559.181 116V110.56C560.035 110.773 560.995 111.013 562.061 111.28C563.181 111.6 564.381 111.867 565.661 112.08C566.995 112.293 568.408 112.4 569.901 112.4C573.528 112.4 576.195 111.947 577.901 111.04C579.661 110.187 580.808 109.093 581.341 107.76C581.875 106.48 582.141 105.173 582.141 103.84V98L584.141 100C583.128 100.533 581.848 101.04 580.301 101.52C578.755 102 577.181 102.4 575.581 102.72C573.981 103.04 572.595 103.2 571.421 103.2ZM571.421 97.92C573.128 97.92 574.915 97.7067 576.781 97.28C578.701 96.8 580.488 96.08 582.141 95.12V72.16C582.141 70.6667 581.715 69.5467 580.861 68.8C580.061 68 578.968 67.4667 577.581 67.2C576.195 66.88 574.701 66.72 573.101 66.72C569.208 66.72 566.275 67.4933 564.301 69.04C562.328 70.5333 560.995 72.5333 560.301 75.04C559.608 77.5467 559.261 80.24 559.261 83.12C559.261 87.4933 560.195 91.0667 562.061 93.84C563.928 96.56 567.048 97.92 571.421 97.92Z" fill="#282D3B"/>
</svg>
